<svg xmlns="http://www.w3.org/2000/svg" width="27.204" height="31.643" viewBox="0 0 27.204 31.643"><defs><style>.a{fill:#40a5d9;}.b{fill:#2d4961;}.c{fill:#123247;}.d{fill:#44637f;}.e{fill:#ffcb5b;}.f{fill:#ffdb6f;}.g{fill:#f7b84e;}.h{fill:#3689c9;}.i{fill:#e2e5e7;}.j{fill:#4c9fd7;}.k{fill:#f1f2f2;}.l{fill:#ff5a58;}.l,.n{fill-rule:evenodd;}.m,.n{fill:#ffc144;}</style></defs><path d="M162.182,110.269a5.4,5.4,0,0,1-2.04-3.219,6.626,6.626,0,0,1-.108-1.034.53.53,0,0,1,.51-.6.559.559,0,0,1,.563.563,8.084,8.084,0,0,0,.141,1.061,4.308,4.308,0,1,0,4.944-5.323,4.242,4.242,0,0,0-2.781.424c.093.056.2.083.226.145.085.178.224.389.185.551a.605.605,0,0,1-.414.388,12.122,12.122,0,0,1-1.7.009c-.3-.018-.444-.262-.448-.559-.007-.475-.008-.949,0-1.423a.55.55,0,0,1,.552-.6c.316.006.5.225.524.591,0,.062.008.125.014.188,0,.008.012.014.042.048a5.371,5.371,0,0,1,4.933-.559,5.222,5.222,0,0,1,2.726,2.293,5.424,5.424,0,0,1-1.34,7.028h2.367c-.051-.065-.089-.109-.122-.154a.541.541,0,0,1,.052-.742.524.524,0,0,1,.742.023q.551.521,1.071,1.077a.532.532,0,0,1-.038.788q-.5.511-1.006,1.006a.545.545,0,0,1-.788.055.54.54,0,0,1,0-.788l.1-.134c-.132-.007-.231-.017-.327-.017H158.716c-.105,0-.211,0-.316,0a.522.522,0,0,1-.527-.518.529.529,0,0,1,.5-.553,2.141,2.141,0,0,1,.253-.005h3.561Z" transform="translate(-151.891 -100.561)"/><path class="a" d="M173.572,280.152A4.858,4.858,0,0,1,178.417,285v12.272a.136.136,0,0,1-.137.136h-14a.137.137,0,0,1-.136-.136V285a4.858,4.858,0,0,1,4.845-4.845,2.406,2.406,0,0,0,4.587,0Z" transform="translate(-157.676 -266.338)"/><path d="M171.357,290.994h-14a.714.714,0,0,1-.713-.713V278.007a5.427,5.427,0,0,1,5.421-5.42h.514l.059.51c.016.114.209,1.169,1.721,1.169s1.705-1.055,1.722-1.176l.059-.51.514.007a5.426,5.426,0,0,1,5.42,5.42v12.273A.714.714,0,0,1,171.357,290.994Zm-13.563-1.154h13.121V278.007a4.273,4.273,0,0,0-3.832-4.241,3.075,3.075,0,0,1-5.457,0,4.272,4.272,0,0,0-3.832,4.245Z" transform="translate(-150.753 -259.35)"/><path d="M192.232,288.7a.385.385,0,0,1-.22-.069l-3.809-2.658a.385.385,0,1,1,.441-.631l3.477,2.427.892-1.414a.385.385,0,0,1,.329-.18h0a.385.385,0,0,1,.325.181l.885,1.414,3.477-2.427a.385.385,0,0,1,.44.631l-3.808,2.658a.384.384,0,0,1-.546-.112l-.775-1.237-.784,1.238a.384.384,0,0,1-.249.172A.367.367,0,0,1,192.232,288.7Z" transform="translate(-179.737 -271.063)"/><path d="M106.753,498.154H80.645a.578.578,0,0,1,0-1.154h26.108a.578.578,0,0,1,0,1.154Z" transform="translate(-80.097 -466.51)"/><path class="b" d="M269.525,327.558a.814.814,0,0,0,.3-.636v-.979a.543.543,0,0,0-.543-.543h-3.8a.543.543,0,0,0-.543.543v.979a.817.817,0,0,0,.3.636l1.869,1.5v.319l-.592,1.26-1.317.2a.308.308,0,0,0-.176.515l.961.986-.231,1.4a.308.308,0,0,0,.45.316l1.18-.649,1.172.648a.308.308,0,0,0,.455-.316l-.231-1.4.961-.986a.308.308,0,0,0-.172-.515l-1.321-.2-.6-1.261v-.317Z" transform="translate(-250.724 -308.108)"/><path class="c" d="M302.172,332.732v.782a.41.41,0,0,1-.154.318l-1.477,1.183a.722.722,0,0,0-.271.562h0l1.869-1.5a.815.815,0,0,0,.3-.636v-.98A.271.271,0,0,0,302.172,332.732Z" transform="translate(-283.337 -314.625)"/><path class="d" d="M265.483,325.4a.543.543,0,0,0-.543.543v.951h0a.271.271,0,0,0,.271-.271v-.679a.272.272,0,0,1,.272-.271h3.531a.272.272,0,0,0,.271-.271Z" transform="translate(-250.724 -308.108)"/><path class="c" d="M280.292,399.56l.961-.986a.308.308,0,0,0,.071-.311.315.315,0,0,0-.022-.043.345.345,0,0,0-.188.077l-.769.789a.546.546,0,0,0-.147.468l.18,1.126a.308.308,0,0,1-.45.316l-.911-.5a.544.544,0,0,0-.533,0l-.9.5a.162.162,0,0,1-.039.013.179.179,0,0,0-.124.221.15.15,0,0,0,.017.039h0a.3.3,0,0,0,.285,0l1.174-.649,1.178.649a.308.308,0,0,0,.455-.316Z" transform="translate(-262.236 -375.327)"/><path class="e" d="M276.966,388.806l-1.009.558.193-1.184-.83-.85,1.146-.175.5-1.064.5,1.064,1.146.175-.83.85.193,1.184Z" transform="translate(-260.306 -364.13)"/><path class="f" d="M276.618,387.376l.475-1.013-.128-.273-.5,1.064-1.146.175.208.213Z" transform="translate(-260.306 -364.13)"/><path class="g" d="M286.255,401.656l-.3-.046-.678.7.192,1.183-1.009-.557-.805.444-.052.314,1.009-.558,1.009.558-.193-1.184Z" transform="translate(-267.949 -378.457)"/><path class="h" d="M272.1,333.655a.274.274,0,0,1-.1-.212v-.983h3.8v.979a.272.272,0,0,1-.1.212l-1.8,1.446Z" transform="translate(-257.241 -314.625)"/><path class="i" d="M306.093,337.374V335.99h-.543v1.82Z" transform="translate(-288.211 -317.883)"/><path class="i" d="M281.373,337.81v-1.82h-.543v1.384Z" transform="translate(-265.392 -317.883)"/><path class="i" d="M293.19,338.137l.271.218.271-.218V335.99h-.543Z" transform="translate(-276.801 -317.883)"/><rect class="j" width="3.802" height="0.271" transform="translate(14.758 17.835)"/><rect class="k" width="0.543" height="0.271" transform="translate(15.437 17.835)"/><rect class="k" width="0.543" height="0.271" transform="translate(16.388 17.835)"/><rect class="k" width="0.543" height="0.271" transform="translate(17.339 17.835)"/><path class="d" d="M267.154,373.07v.313l-.592,1.26-1.317.2a.308.308,0,0,0-.176.514l.048.052a.3.3,0,0,1,.258-.295l1.041-.159a.542.542,0,0,0,.408-.291l.531-1.052a.639.639,0,0,0,.071-.291h0a.253.253,0,0,0-.252-.253Z" transform="translate(-250.765 -352.112)"/><path class="l" d="M182.46,321.658a1.763,1.763,0,1,1,1.763,1.763A1.763,1.763,0,0,1,182.46,321.658Zm3.327,2.128.188-.361.067-.035.315-.169h0a.538.538,0,0,0,.285-.5l-.017-.411.2-.329a.544.544,0,0,0,.021-.615l-.221-.348.013-.43h0a.538.538,0,0,0-.291-.495l-.361-.189-.2-.385h0a.538.538,0,0,0-.5-.285l-.412.017-.328-.2a.538.538,0,0,0-.615-.021l-.348.221-.43-.013h0a.538.538,0,0,0-.5.291l-.188.362-.385.2h0a.543.543,0,0,0-.285.5l.018.412-.2.327a.538.538,0,0,0-.022.615l.222.348-.014.43h0a.538.538,0,0,0,.291.5l.308.162.051.027.2.384h0a.538.538,0,0,0,.5.285l.411-.018.182.112.148.092a.538.538,0,0,0,.615.022l.178-.113.17-.108.43.014h0A.538.538,0,0,0,185.787,323.786Z" transform="translate(-173.71 -302.149)"/><circle class="m" cx="1.763" cy="1.763" r="1.763" transform="translate(8.75 17.746)"/><path class="n" d="M223.985,377.118a.538.538,0,0,1-.5.291h0l-.43-.014-.17.108.834,1.444.42-.833.931.052-.835-1.447-.067.035Z" transform="translate(-211.908 -355.481)"/><path class="n" d="M183.621,378.856l.834-1.444-.182-.112-.411.018a.538.538,0,0,1-.5-.285h0l-.2-.385-.051-.027-.838,1.451.932-.052Z" transform="translate(-174.412 -355.389)"/><path d="M195.906,331.437a1.9,1.9,0,0,0-2.713-1.715.136.136,0,0,0,.117.245,1.6,1.6,0,0,1,.7-.154,1.624,1.624,0,1,1-1.478.946.136.136,0,1,0-.246-.114,1.9,1.9,0,1,0,3.622.794Z" transform="translate(-183.495 -311.928)"/><path d="M184.619,321.826l.192-.1a.032.032,0,0,0,.011-.007.674.674,0,0,0,.345-.615l-.016-.371.18-.289a.676.676,0,0,0,.022-.761l-.2-.313.012-.388v-.008a.676.676,0,0,0-.364-.611l-.325-.169-.185-.345-.007-.011a.671.671,0,0,0-.615-.345l-.37.015-.288-.182a.676.676,0,0,0-.761-.022l-.315.2-.388-.012h-.008a.675.675,0,0,0-.611.364l-.171.328-.345.185-.012.007a.674.674,0,0,0-.345.615l.015.37-.179.289a.676.676,0,0,0-.022.761l.2.313-.012.388v.009a.673.673,0,0,0,.364.61l.185.1-.769,1.329a.135.135,0,0,0,.125.2l.846-.048.38.755a.135.135,0,0,0,.117.077h0a.136.136,0,0,0,.118-.068l.764-1.323.025.015a.675.675,0,0,0,.761.022l.058-.037.764,1.322a.135.135,0,0,0,.118.068h0a.135.135,0,0,0,.117-.077l.38-.755.846.048a.135.135,0,0,0,.123-.064.137.137,0,0,0,0-.139Zm-3.3,1.89-.308-.61a.135.135,0,0,0-.128-.077l-.681.038.61-1.056.122.226a.032.032,0,0,0,.007.011.673.673,0,0,0,.615.345l.371-.015.034.021Zm1.054-1.178-.009-.005-.333-.2a.136.136,0,0,0-.071-.02h-.006l-.411.017a.4.4,0,0,1-.374-.213.044.044,0,0,0,0-.015l-.2-.371a.136.136,0,0,0-.056-.056l-.365-.188a.4.4,0,0,1-.218-.371v-.007l.013-.422a.134.134,0,0,0-.021-.077l-.222-.348a.407.407,0,0,1,.016-.462l.006-.008.2-.33a.141.141,0,0,0,.02-.077l-.017-.411a.4.4,0,0,1,.213-.374l.01-.006.371-.2a.136.136,0,0,0,.056-.056l.189-.361a.4.4,0,0,1,.371-.218h.007l.422.013a.135.135,0,0,0,.077-.021l.348-.221a.405.405,0,0,1,.461.015l.009.006.329.2a.134.134,0,0,0,.077.02l.411-.017a.4.4,0,0,1,.374.214l.006.009.2.371a.132.132,0,0,0,.056.056l.362.189a.4.4,0,0,1,.218.371v.007l-.013.422a.133.133,0,0,0,.021.077l.221.348a.407.407,0,0,1-.016.461l-.006.009-.2.329a.135.135,0,0,0-.02.077l.017.411a.4.4,0,0,1-.215.375l-.009.006-.371.2a.141.141,0,0,0-.056.056l-.189.362a.4.4,0,0,1-.371.218h-.007l-.422-.013a.133.133,0,0,0-.077.021l-.348.222a.4.4,0,0,1-.461-.016Zm1.973.494a.135.135,0,0,0-.128.077l-.308.61-.644-1.115.025-.016.385.012h.008a.673.673,0,0,0,.611-.364l.116-.222.615,1.06Z" transform="translate(-172.099 -300.533)"/></svg>