<svg xmlns="http://www.w3.org/2000/svg" xmlns:xlink="http://www.w3.org/1999/xlink" width="206" height="65" viewBox="0 0 206 65"><defs><style>.a{fill:#fff;}.b{fill:#ddd;}.c{clip-path:url(#a);}.d{clip-path:url(#b);}</style><clipPath id="a"><path class="a" d="M10,0H196a10,10,0,0,1,10,10V65a0,0,0,0,1,0,0H0a0,0,0,0,1,0,0V10A10,10,0,0,1,10,0Z" transform="translate(-2580 297)"/></clipPath><clipPath id="b"><path class="b" d="M0,0H237V50.383s-51.221-15-126.27-3.2S0,67,0,67Z" transform="translate(-2525 297)"/></clipPath></defs><g class="c" transform="translate(2580 -297)"><g class="d" transform="translate(-71)"><rect class="b" width="206" height="250" rx="10" transform="translate(-2509 297)"/></g></g></svg>